<svg width="299" height="61" viewBox="0 0 299 61" fill="none" xmlns="http://www.w3.org/2000/svg">
<path d="M149.504 13.2835C149.811 13.1078 150.189 13.1078 150.496 13.2835L176.481 28.1318C177.152 28.5157 177.152 29.4843 176.481 29.8682L150.496 44.7165C150.189 44.8922 149.811 44.8922 149.504 44.7165L123.519 29.8682C122.848 29.4843 122.848 28.5157 123.519 28.1318L149.504 13.2835Z" fill="#A8D5BA"/>
<path d="M270.504 13.2835C270.811 13.1078 271.189 13.1078 271.496 13.2835L297.481 28.1318C298.152 28.5157 298.152 29.4843 297.481 29.8682L271.496 44.7165C271.189 44.8922 270.811 44.8922 270.504 44.7165L244.519 29.8682C243.848 29.4843 243.848 28.5157 244.519 28.1318L270.504 13.2835Z" fill="#E9ECEF"/>
<line x1="179" y1="29" x2="243" y2="29" stroke="#E9ECEF" stroke-width="2"/>
<line x1="57" y1="29" x2="121" y2="29" stroke="#A8D5BA" stroke-width="2"/>
<path d="M7.551 54.529H12.738V55.27H7.551V54.529ZM6.342 48.094H14.064V48.848H6.342V48.094ZM6.654 49.68H13.739V50.395H6.654V49.68ZM5.952 51.292H14.454V52.046H5.952V51.292ZM7.564 56.258H12.777V56.999H7.564V56.258ZM6.888 52.8H12.725V53.554H7.798V59.027H6.888V52.8ZM12.504 52.8H13.427V57.948C13.427 58.1907 13.3923 58.3813 13.323 58.52C13.2623 58.6587 13.141 58.7627 12.959 58.832C12.777 58.91 12.5343 58.9533 12.231 58.962C11.9277 58.9793 11.5463 58.988 11.087 58.988C11.0697 58.8667 11.0307 58.7237 10.97 58.559C10.918 58.403 10.8617 58.2643 10.801 58.143C11.1303 58.1517 11.4337 58.156 11.711 58.156C11.997 58.1647 12.1833 58.1647 12.27 58.156C12.426 58.1473 12.504 58.0737 12.504 57.935V52.8ZM9.67 47.08H10.632V51.526H9.67V47.08ZM3.976 47.08H4.86V59.027H3.976V47.08ZM2.949 49.589L3.677 49.68C3.65967 50.018 3.625 50.3993 3.573 50.824C3.52967 51.24 3.469 51.656 3.391 52.072C3.313 52.488 3.222 52.8607 3.118 53.19L2.351 52.93C2.455 52.6353 2.546 52.293 2.624 51.903C2.702 51.513 2.767 51.1143 2.819 50.707C2.87967 50.2997 2.923 49.927 2.949 49.589ZM4.977 49.238L5.627 48.978C5.77433 49.2727 5.91733 49.5977 6.056 49.953C6.19467 50.2997 6.29433 50.59 6.355 50.824L5.666 51.162C5.60533 50.9107 5.51 50.603 5.38 50.239C5.25 49.875 5.11567 49.5413 4.977 49.238ZM22.228 52.098H26.492V52.904H22.228V52.098ZM21.747 47.678H26.388V48.562H22.644V59.053H21.747V47.678ZM25.92 47.678H26.83V50.187C26.83 50.4297 26.7953 50.6203 26.726 50.759C26.6653 50.8977 26.5353 51.006 26.336 51.084C26.1367 51.1533 25.868 51.1967 25.53 51.214C25.2007 51.2227 24.7803 51.227 24.269 51.227C24.2517 51.097 24.2127 50.954 24.152 50.798C24.1 50.6333 24.0393 50.4903 23.97 50.369C24.2473 50.3777 24.4987 50.3863 24.724 50.395C24.958 50.395 25.1573 50.395 25.322 50.395C25.4867 50.395 25.5993 50.3907 25.66 50.382C25.7727 50.3733 25.842 50.356 25.868 50.33C25.9027 50.304 25.92 50.2563 25.92 50.187V47.678ZM23.502 52.631C23.736 53.4457 24.0523 54.2213 24.451 54.958C24.8497 55.686 25.3133 56.336 25.842 56.908C26.3793 57.48 26.9773 57.9263 27.636 58.247C27.5233 58.3337 27.402 58.455 27.272 58.611C27.142 58.7757 27.038 58.9187 26.96 59.04C26.2927 58.6587 25.686 58.156 25.14 57.532C24.6027 56.908 24.1303 56.193 23.723 55.387C23.3243 54.581 22.995 53.7317 22.735 52.839L23.502 52.631ZM26.193 52.098H26.362L26.531 52.059L27.142 52.28C26.9687 53.216 26.7087 54.113 26.362 54.971C26.024 55.829 25.595 56.609 25.075 57.311C24.5637 58.0043 23.9613 58.5893 23.268 59.066C23.19 58.9533 23.086 58.832 22.956 58.702C22.8347 58.5807 22.7177 58.481 22.605 58.403C23.2637 57.9697 23.8357 57.4323 24.321 56.791C24.8063 56.141 25.205 55.4303 25.517 54.659C25.8377 53.8877 26.063 53.1077 26.193 52.319V52.098ZM16.001 48.419H20.824V49.251H16.001V48.419ZM15.858 55.517H20.993V56.362H15.858V55.517ZM15.546 50.564H21.331V51.409H15.546V50.564ZM15.728 53.255H21.162V54.1H15.728V53.255ZM18.003 47.093H18.913V50.863H18.003V47.093ZM18.003 53.619H18.913V59.014H18.003V53.619ZM19.758 51.357L20.603 51.565C20.473 51.877 20.343 52.1933 20.213 52.514C20.0917 52.826 19.966 53.0947 19.836 53.32L19.121 53.112C19.1903 52.9473 19.264 52.761 19.342 52.553C19.4287 52.345 19.5067 52.137 19.576 51.929C19.654 51.7123 19.7147 51.5217 19.758 51.357ZM16.443 51.565L17.184 51.37C17.34 51.6473 17.4743 51.9507 17.587 52.28C17.6997 52.6093 17.769 52.8867 17.795 53.112L17.015 53.346C16.989 53.112 16.9197 52.8303 16.807 52.501C16.703 52.163 16.5817 51.851 16.443 51.565ZM32.095 50.707H36.905V51.539H32.095V50.707ZM28.858 57.909H40.181V58.741H28.858V57.909ZM29.625 47.574H33.486V48.393H29.625V47.574ZM33.174 47.574H33.33L33.512 47.535L34.149 47.86C33.9063 48.484 33.5943 49.0647 33.213 49.602C32.8403 50.1393 32.42 50.6333 31.952 51.084C31.484 51.5347 30.99 51.9377 30.47 52.293C29.9587 52.6397 29.4473 52.9343 28.936 53.177C28.8667 53.073 28.7757 52.9473 28.663 52.8C28.5503 52.6527 28.442 52.5357 28.338 52.449C28.8147 52.2497 29.2957 51.9897 29.781 51.669C30.2663 51.3483 30.7257 50.9843 31.159 50.577C31.601 50.1697 31.9953 49.7277 32.342 49.251C32.6887 48.7743 32.966 48.276 33.174 47.756V47.574ZM35.371 47.106C35.7003 47.8427 36.1293 48.5447 36.658 49.212C37.1953 49.8793 37.7977 50.473 38.465 50.993C39.141 51.513 39.856 51.916 40.61 52.202C40.532 52.2713 40.4497 52.3537 40.363 52.449C40.285 52.5357 40.207 52.631 40.129 52.735C40.0597 52.8303 39.9947 52.9213 39.934 53.008C39.1713 52.6613 38.4477 52.2063 37.763 51.643C37.087 51.0797 36.4717 50.434 35.917 49.706C35.371 48.978 34.916 48.2023 34.552 47.379L35.371 47.106ZM29.274 49.42L29.807 48.874C30.041 49.004 30.275 49.1557 30.509 49.329C30.7517 49.4937 30.9727 49.6627 31.172 49.836C31.38 50.0093 31.5447 50.174 31.666 50.33L31.133 50.928C30.9423 50.7027 30.6693 50.447 30.314 50.161C29.9587 49.875 29.612 49.628 29.274 49.42ZM37.971 47.184L38.725 47.717C38.387 48.029 38.01 48.3453 37.594 48.666C37.1867 48.9867 36.8097 49.264 36.463 49.498L35.865 49.03C36.0903 48.8653 36.333 48.679 36.593 48.471C36.853 48.2543 37.1043 48.0333 37.347 47.808C37.5897 47.5827 37.7977 47.3747 37.971 47.184ZM39.44 48.718L40.168 49.238C39.8213 49.5587 39.4313 49.8837 38.998 50.213C38.5733 50.5423 38.1833 50.8197 37.828 51.045L37.23 50.577C37.464 50.4123 37.7153 50.226 37.984 50.018C38.2613 49.8013 38.5257 49.5803 38.777 49.355C39.037 49.1297 39.258 48.9173 39.44 48.718ZM31.848 53.424V55.127H37.113V53.424H31.848ZM30.899 52.605H38.114V55.933H30.899V52.605ZM31.653 56.141L32.537 55.907C32.719 56.1843 32.888 56.4963 33.044 56.843C33.2 57.181 33.3127 57.4757 33.382 57.727L32.446 58.013C32.3853 57.7617 32.2813 57.4583 32.134 57.103C31.9867 56.7477 31.8263 56.427 31.653 56.141ZM36.489 55.868L37.425 56.115C37.2517 56.4617 37.074 56.804 36.892 57.142C36.71 57.48 36.5367 57.7747 36.372 58.026L35.527 57.792C35.6397 57.6187 35.7567 57.4193 35.878 57.194C35.9993 56.9687 36.112 56.739 36.216 56.505C36.3287 56.2623 36.4197 56.05 36.489 55.868ZM52.622 52.787L53.389 53.268C53.129 53.5887 52.8473 53.9093 52.544 54.23C52.2493 54.5507 51.9763 54.8323 51.725 55.075L51.101 54.633C51.2657 54.4683 51.439 54.282 51.621 54.074C51.8117 53.8573 51.9937 53.6363 52.167 53.411C52.349 53.177 52.5007 52.969 52.622 52.787ZM46.811 53.424L47.461 53.008C47.747 53.2593 48.0243 53.5497 48.293 53.879C48.5703 54.2083 48.774 54.4943 48.904 54.737L48.202 55.218C48.0807 54.9667 47.8857 54.672 47.617 54.334C47.3483 53.996 47.0797 53.6927 46.811 53.424ZM47.214 47.6H52.414V51.955H51.504V48.432H47.214V47.6ZM47.474 49.55H52.024V50.33H47.474V49.55ZM46.538 51.474H53.493V52.319H46.538V51.474ZM49.45 51.864H50.36V58.013C50.36 58.2557 50.334 58.442 50.282 58.572C50.23 58.7107 50.1217 58.8147 49.957 58.884C49.8097 58.9533 49.6103 58.9967 49.359 59.014C49.1163 59.0313 48.813 59.04 48.449 59.04C48.4403 58.9187 48.41 58.7757 48.358 58.611C48.306 58.4463 48.2497 58.3033 48.189 58.182C48.4317 58.1907 48.6527 58.195 48.852 58.195C49.0513 58.195 49.19 58.195 49.268 58.195C49.346 58.1863 49.3937 58.169 49.411 58.143C49.437 58.117 49.45 58.0693 49.45 58V51.864ZM46.252 57.337C46.5987 57.129 47.006 56.869 47.474 56.557C47.942 56.2363 48.423 55.9113 48.917 55.582L49.203 56.323C48.787 56.6437 48.3623 56.96 47.929 57.272C47.5043 57.584 47.1013 57.8743 46.72 58.143L46.252 57.337ZM50.321 52.449C50.425 52.8823 50.5637 53.3373 50.737 53.814C50.919 54.282 51.1443 54.7457 51.413 55.205C51.6903 55.6643 52.0197 56.089 52.401 56.479C52.7823 56.8603 53.22 57.1853 53.714 57.454C53.6533 57.5147 53.584 57.5927 53.506 57.688C53.428 57.7747 53.35 57.87 53.272 57.974C53.2027 58.078 53.142 58.1733 53.09 58.26C52.596 57.9567 52.1627 57.597 51.79 57.181C51.4173 56.7563 51.0967 56.3057 50.828 55.829C50.568 55.3523 50.3513 54.88 50.178 54.412C50.0047 53.944 49.8703 53.5107 49.775 53.112L50.321 52.449ZM42.404 50.304H46.109V51.136H42.404V50.304ZM41.715 52.527H46.473V53.385H41.715V52.527ZM42.001 54.23L42.677 54.074C42.8157 54.464 42.9327 54.8887 43.028 55.348C43.1233 55.8073 43.184 56.2017 43.21 56.531L42.482 56.713C42.4733 56.375 42.4213 55.9763 42.326 55.517C42.2393 55.0577 42.131 54.6287 42.001 54.23ZM41.585 57.74C41.9923 57.662 42.456 57.5753 42.976 57.48C43.5047 57.376 44.0637 57.2677 44.653 57.155C45.2423 57.0337 45.8273 56.9167 46.408 56.804L46.486 57.623C45.654 57.805 44.8263 57.987 44.003 58.169C43.1797 58.351 42.443 58.507 41.793 58.637L41.585 57.74ZM45.615 53.957L46.382 54.152C46.2693 54.5507 46.1567 54.9667 46.044 55.4C45.9313 55.8247 45.8187 56.1887 45.706 56.492L45.069 56.297C45.1383 56.089 45.2077 55.8463 45.277 55.569C45.3463 55.283 45.4113 55.0013 45.472 54.724C45.5327 54.438 45.5803 54.1823 45.615 53.957ZM43.743 50.616H44.614V57.701L43.743 57.831V50.616ZM43.704 47.08H44.224V47.288H44.51V47.548C44.2587 48.042 43.9163 48.6097 43.483 49.251C43.0497 49.8837 42.5123 50.486 41.871 51.058C41.819 50.9887 41.7583 50.915 41.689 50.837C41.6197 50.759 41.546 50.6853 41.468 50.616C41.39 50.538 41.3207 50.4773 41.26 50.434C41.6587 50.1047 42.014 49.7493 42.326 49.368C42.638 48.978 42.9067 48.588 43.132 48.198C43.366 47.7993 43.5567 47.4267 43.704 47.08ZM43.86 47.08H44.588C44.848 47.314 45.1167 47.574 45.394 47.86C45.6713 48.1373 45.9313 48.4147 46.174 48.692C46.4253 48.9607 46.6247 49.2077 46.772 49.433L46.122 50.161C45.9747 49.9443 45.784 49.693 45.55 49.407C45.3247 49.1123 45.082 48.822 44.822 48.536C44.562 48.2413 44.3063 47.9857 44.055 47.769H43.86V47.08Z" fill="#2C3E50"/>
<path d="M129.551 54.529H134.738V55.27H129.551V54.529ZM128.342 48.094H136.064V48.848H128.342V48.094ZM128.654 49.68H135.739V50.395H128.654V49.68ZM127.952 51.292H136.454V52.046H127.952V51.292ZM129.564 56.258H134.777V56.999H129.564V56.258ZM128.888 52.8H134.725V53.554H129.798V59.027H128.888V52.8ZM134.504 52.8H135.427V57.948C135.427 58.1907 135.392 58.3813 135.323 58.52C135.262 58.6587 135.141 58.7627 134.959 58.832C134.777 58.91 134.534 58.9533 134.231 58.962C133.928 58.9793 133.546 58.988 133.087 58.988C133.07 58.8667 133.031 58.7237 132.97 58.559C132.918 58.403 132.862 58.2643 132.801 58.143C133.13 58.1517 133.434 58.156 133.711 58.156C133.997 58.1647 134.183 58.1647 134.27 58.156C134.426 58.1473 134.504 58.0737 134.504 57.935V52.8ZM131.67 47.08H132.632V51.526H131.67V47.08ZM125.976 47.08H126.86V59.027H125.976V47.08ZM124.949 49.589L125.677 49.68C125.66 50.018 125.625 50.3993 125.573 50.824C125.53 51.24 125.469 51.656 125.391 52.072C125.313 52.488 125.222 52.8607 125.118 53.19L124.351 52.93C124.455 52.6353 124.546 52.293 124.624 51.903C124.702 51.513 124.767 51.1143 124.819 50.707C124.88 50.2997 124.923 49.927 124.949 49.589ZM126.977 49.238L127.627 48.978C127.774 49.2727 127.917 49.5977 128.056 49.953C128.195 50.2997 128.294 50.59 128.355 50.824L127.666 51.162C127.605 50.9107 127.51 50.603 127.38 50.239C127.25 49.875 127.116 49.5413 126.977 49.238ZM144.228 52.098H148.492V52.904H144.228V52.098ZM143.747 47.678H148.388V48.562H144.644V59.053H143.747V47.678ZM147.92 47.678H148.83V50.187C148.83 50.4297 148.795 50.6203 148.726 50.759C148.665 50.8977 148.535 51.006 148.336 51.084C148.137 51.1533 147.868 51.1967 147.53 51.214C147.201 51.2227 146.78 51.227 146.269 51.227C146.252 51.097 146.213 50.954 146.152 50.798C146.1 50.6333 146.039 50.4903 145.97 50.369C146.247 50.3777 146.499 50.3863 146.724 50.395C146.958 50.395 147.157 50.395 147.322 50.395C147.487 50.395 147.599 50.3907 147.66 50.382C147.773 50.3733 147.842 50.356 147.868 50.33C147.903 50.304 147.92 50.2563 147.92 50.187V47.678ZM145.502 52.631C145.736 53.4457 146.052 54.2213 146.451 54.958C146.85 55.686 147.313 56.336 147.842 56.908C148.379 57.48 148.977 57.9263 149.636 58.247C149.523 58.3337 149.402 58.455 149.272 58.611C149.142 58.7757 149.038 58.9187 148.96 59.04C148.293 58.6587 147.686 58.156 147.14 57.532C146.603 56.908 146.13 56.193 145.723 55.387C145.324 54.581 144.995 53.7317 144.735 52.839L145.502 52.631ZM148.193 52.098H148.362L148.531 52.059L149.142 52.28C148.969 53.216 148.709 54.113 148.362 54.971C148.024 55.829 147.595 56.609 147.075 57.311C146.564 58.0043 145.961 58.5893 145.268 59.066C145.19 58.9533 145.086 58.832 144.956 58.702C144.835 58.5807 144.718 58.481 144.605 58.403C145.264 57.9697 145.836 57.4323 146.321 56.791C146.806 56.141 147.205 55.4303 147.517 54.659C147.838 53.8877 148.063 53.1077 148.193 52.319V52.098ZM138.001 48.419H142.824V49.251H138.001V48.419ZM137.858 55.517H142.993V56.362H137.858V55.517ZM137.546 50.564H143.331V51.409H137.546V50.564ZM137.728 53.255H143.162V54.1H137.728V53.255ZM140.003 47.093H140.913V50.863H140.003V47.093ZM140.003 53.619H140.913V59.014H140.003V53.619ZM141.758 51.357L142.603 51.565C142.473 51.877 142.343 52.1933 142.213 52.514C142.092 52.826 141.966 53.0947 141.836 53.32L141.121 53.112C141.19 52.9473 141.264 52.761 141.342 52.553C141.429 52.345 141.507 52.137 141.576 51.929C141.654 51.7123 141.715 51.5217 141.758 51.357ZM138.443 51.565L139.184 51.37C139.34 51.6473 139.474 51.9507 139.587 52.28C139.7 52.6093 139.769 52.8867 139.795 53.112L139.015 53.346C138.989 53.112 138.92 52.8303 138.807 52.501C138.703 52.163 138.582 51.851 138.443 51.565ZM156.786 53.372H161.869V54.126H156.786V53.372ZM156.786 55.504H161.869V56.271H156.786V55.504ZM156.799 57.636H162.48V58.468H156.799V57.636ZM155.304 48.406H162.415V50.642H161.531V49.251H156.162V50.642H155.304V48.406ZM158.892 51.812H159.802V58.078H158.892V51.812ZM157.124 51.201H162.09V52.046H157.124V59.04H156.201V52.072L157.046 51.201H157.124ZM158.359 47.067L159.282 47.249C158.918 48.5663 158.415 49.7537 157.774 50.811C157.141 51.8683 156.383 52.7437 155.499 53.437C155.456 53.3763 155.391 53.3027 155.304 53.216C155.226 53.1207 155.139 53.0297 155.044 52.943C154.957 52.8563 154.879 52.787 154.81 52.735C155.668 52.1023 156.392 51.3007 156.981 50.33C157.579 49.3507 158.038 48.263 158.359 47.067ZM159.711 49.654L160.621 49.875C160.465 50.213 160.305 50.5553 160.14 50.902C159.984 51.24 159.832 51.5303 159.685 51.773L158.944 51.565C159.083 51.305 159.226 50.993 159.373 50.629C159.52 50.2563 159.633 49.9313 159.711 49.654ZM150.689 47.951H155.278V48.861H150.689V47.951ZM152.002 51.747H154.927V57.441H152.002V56.583H154.082V52.618H152.002V51.747ZM152.21 48.38L153.146 48.523C153.016 49.433 152.847 50.317 152.639 51.175C152.44 52.0243 152.193 52.8173 151.898 53.554C151.612 54.2907 151.27 54.945 150.871 55.517C150.836 55.4477 150.784 55.3567 150.715 55.244C150.646 55.1227 150.576 55.0057 150.507 54.893C150.438 54.7717 150.373 54.6763 150.312 54.607C150.659 54.113 150.953 53.541 151.196 52.891C151.447 52.2323 151.655 51.5217 151.82 50.759C151.985 49.9877 152.115 49.1947 152.21 48.38ZM151.599 51.747H152.418V58.468H151.599V51.747ZM171.06 47.99H171.957C171.896 48.51 171.801 49.03 171.671 49.55C171.541 50.0613 171.359 50.551 171.125 51.019C170.891 51.487 170.583 51.9203 170.202 52.319C169.821 52.709 169.344 53.047 168.772 53.333C168.72 53.229 168.633 53.1077 168.512 52.969C168.399 52.8303 168.295 52.722 168.2 52.644C168.729 52.4013 169.166 52.1067 169.513 51.76C169.86 51.4047 170.137 51.0233 170.345 50.616C170.553 50.2 170.709 49.771 170.813 49.329C170.926 48.8783 171.008 48.432 171.06 47.99ZM168.681 49.849L169.149 49.16C169.6 49.316 170.068 49.5023 170.553 49.719C171.038 49.927 171.493 50.148 171.918 50.382C172.351 50.6073 172.711 50.8197 172.997 51.019L172.516 51.786C172.23 51.578 171.87 51.3527 171.437 51.11C171.012 50.8673 170.557 50.6333 170.072 50.408C169.595 50.1827 169.132 49.9963 168.681 49.849ZM174.128 47.639H175.051C175.051 47.639 175.051 47.665 175.051 47.717C175.051 47.7603 175.051 47.8167 175.051 47.886C175.051 47.9467 175.051 47.9987 175.051 48.042C175.008 49.0647 174.96 49.8923 174.908 50.525C174.856 51.1577 174.795 51.6387 174.726 51.968C174.657 52.2973 174.566 52.5227 174.453 52.644C174.358 52.774 174.249 52.865 174.128 52.917C174.007 52.969 173.855 53.0037 173.673 53.021C173.517 53.0383 173.3 53.047 173.023 53.047C172.754 53.0383 172.464 53.0253 172.152 53.008C172.143 52.878 172.117 52.7307 172.074 52.566C172.031 52.3927 171.97 52.2453 171.892 52.124C172.195 52.15 172.473 52.1673 172.724 52.176C172.975 52.176 173.153 52.176 173.257 52.176C173.448 52.1933 173.586 52.15 173.673 52.046C173.751 51.9593 173.816 51.7687 173.868 51.474C173.929 51.1793 173.981 50.7373 174.024 50.148C174.067 49.5587 174.102 48.7743 174.128 47.795V47.639ZM170.15 54.555H171.047V57.701C171.047 57.857 171.073 57.9567 171.125 58C171.177 58.0433 171.294 58.065 171.476 58.065C171.511 58.065 171.584 58.065 171.697 58.065C171.81 58.065 171.931 58.065 172.061 58.065C172.2 58.065 172.325 58.065 172.438 58.065C172.551 58.065 172.637 58.065 172.698 58.065C172.811 58.065 172.897 58.0347 172.958 57.974C173.019 57.9047 173.062 57.766 173.088 57.558C173.114 57.35 173.131 57.025 173.14 56.583C173.201 56.635 173.279 56.687 173.374 56.739C173.469 56.7823 173.569 56.8213 173.673 56.856C173.777 56.8907 173.872 56.921 173.959 56.947C173.933 57.4757 173.881 57.883 173.803 58.169C173.725 58.4637 173.604 58.663 173.439 58.767C173.283 58.8797 173.066 58.936 172.789 58.936C172.746 58.936 172.655 58.936 172.516 58.936C172.377 58.936 172.23 58.936 172.074 58.936C171.918 58.936 171.771 58.936 171.632 58.936C171.502 58.936 171.407 58.936 171.346 58.936C171.025 58.936 170.774 58.9013 170.592 58.832C170.419 58.7627 170.302 58.637 170.241 58.455C170.18 58.273 170.15 58.026 170.15 57.714V54.555ZM168.915 54.997L169.695 55.205C169.652 55.5863 169.587 55.972 169.5 56.362C169.422 56.752 169.309 57.1203 169.162 57.467C169.015 57.805 168.828 58.0953 168.603 58.338L167.875 57.87C168.083 57.6533 168.252 57.3933 168.382 57.09C168.521 56.778 168.633 56.4443 168.72 56.089C168.807 55.725 168.872 55.361 168.915 54.997ZM170.358 53.372L170.943 52.8C171.229 52.9387 171.519 53.1077 171.814 53.307C172.109 53.5063 172.386 53.71 172.646 53.918C172.906 54.126 173.114 54.321 173.27 54.503L172.672 55.153C172.516 54.971 172.312 54.7717 172.061 54.555C171.81 54.3383 171.537 54.1303 171.242 53.931C170.947 53.723 170.653 53.5367 170.358 53.372ZM173.4 55.088L174.193 54.763C174.427 55.0837 174.644 55.4303 174.843 55.803C175.051 56.167 175.224 56.531 175.363 56.895C175.51 57.259 175.614 57.5883 175.675 57.883L174.804 58.234C174.752 57.9393 174.657 57.61 174.518 57.246C174.379 56.882 174.21 56.5137 174.011 56.141C173.82 55.7597 173.617 55.4087 173.4 55.088ZM168.785 47.639H174.544V48.471H168.785V47.639ZM164.079 51.019H167.771V51.786H164.079V51.019ZM164.131 47.535H167.732V48.315H164.131V47.535ZM164.079 52.748H167.771V53.528H164.079V52.748ZM163.494 49.238H168.148V50.057H163.494V49.238ZM164.521 54.503H167.784V58.299H164.521V57.493H166.939V55.322H164.521V54.503ZM164.066 54.503H164.898V58.897H164.066V54.503Z" fill="#6C757D"/>
<path d="M249.095 50.707H253.905V51.539H249.095V50.707ZM245.858 57.909H257.181V58.741H245.858V57.909ZM246.625 47.574H250.486V48.393H246.625V47.574ZM250.174 47.574H250.33L250.512 47.535L251.149 47.86C250.906 48.484 250.594 49.0647 250.213 49.602C249.84 50.1393 249.42 50.6333 248.952 51.084C248.484 51.5347 247.99 51.9377 247.47 52.293C246.959 52.6397 246.447 52.9343 245.936 53.177C245.867 53.073 245.776 52.9473 245.663 52.8C245.55 52.6527 245.442 52.5357 245.338 52.449C245.815 52.2497 246.296 51.9897 246.781 51.669C247.266 51.3483 247.726 50.9843 248.159 50.577C248.601 50.1697 248.995 49.7277 249.342 49.251C249.689 48.7743 249.966 48.276 250.174 47.756V47.574ZM252.371 47.106C252.7 47.8427 253.129 48.5447 253.658 49.212C254.195 49.8793 254.798 50.473 255.465 50.993C256.141 51.513 256.856 51.916 257.61 52.202C257.532 52.2713 257.45 52.3537 257.363 52.449C257.285 52.5357 257.207 52.631 257.129 52.735C257.06 52.8303 256.995 52.9213 256.934 53.008C256.171 52.6613 255.448 52.2063 254.763 51.643C254.087 51.0797 253.472 50.434 252.917 49.706C252.371 48.978 251.916 48.2023 251.552 47.379L252.371 47.106ZM246.274 49.42L246.807 48.874C247.041 49.004 247.275 49.1557 247.509 49.329C247.752 49.4937 247.973 49.6627 248.172 49.836C248.38 50.0093 248.545 50.174 248.666 50.33L248.133 50.928C247.942 50.7027 247.669 50.447 247.314 50.161C246.959 49.875 246.612 49.628 246.274 49.42ZM254.971 47.184L255.725 47.717C255.387 48.029 255.01 48.3453 254.594 48.666C254.187 48.9867 253.81 49.264 253.463 49.498L252.865 49.03C253.09 48.8653 253.333 48.679 253.593 48.471C253.853 48.2543 254.104 48.0333 254.347 47.808C254.59 47.5827 254.798 47.3747 254.971 47.184ZM256.44 48.718L257.168 49.238C256.821 49.5587 256.431 49.8837 255.998 50.213C255.573 50.5423 255.183 50.8197 254.828 51.045L254.23 50.577C254.464 50.4123 254.715 50.226 254.984 50.018C255.261 49.8013 255.526 49.5803 255.777 49.355C256.037 49.1297 256.258 48.9173 256.44 48.718ZM248.848 53.424V55.127H254.113V53.424H248.848ZM247.899 52.605H255.114V55.933H247.899V52.605ZM248.653 56.141L249.537 55.907C249.719 56.1843 249.888 56.4963 250.044 56.843C250.2 57.181 250.313 57.4757 250.382 57.727L249.446 58.013C249.385 57.7617 249.281 57.4583 249.134 57.103C248.987 56.7477 248.826 56.427 248.653 56.141ZM253.489 55.868L254.425 56.115C254.252 56.4617 254.074 56.804 253.892 57.142C253.71 57.48 253.537 57.7747 253.372 58.026L252.527 57.792C252.64 57.6187 252.757 57.4193 252.878 57.194C252.999 56.9687 253.112 56.739 253.216 56.505C253.329 56.2623 253.42 56.05 253.489 55.868ZM269.622 52.787L270.389 53.268C270.129 53.5887 269.847 53.9093 269.544 54.23C269.249 54.5507 268.976 54.8323 268.725 55.075L268.101 54.633C268.266 54.4683 268.439 54.282 268.621 54.074C268.812 53.8573 268.994 53.6363 269.167 53.411C269.349 53.177 269.501 52.969 269.622 52.787ZM263.811 53.424L264.461 53.008C264.747 53.2593 265.024 53.5497 265.293 53.879C265.57 54.2083 265.774 54.4943 265.904 54.737L265.202 55.218C265.081 54.9667 264.886 54.672 264.617 54.334C264.348 53.996 264.08 53.6927 263.811 53.424ZM264.214 47.6H269.414V51.955H268.504V48.432H264.214V47.6ZM264.474 49.55H269.024V50.33H264.474V49.55ZM263.538 51.474H270.493V52.319H263.538V51.474ZM266.45 51.864H267.36V58.013C267.36 58.2557 267.334 58.442 267.282 58.572C267.23 58.7107 267.122 58.8147 266.957 58.884C266.81 58.9533 266.61 58.9967 266.359 59.014C266.116 59.0313 265.813 59.04 265.449 59.04C265.44 58.9187 265.41 58.7757 265.358 58.611C265.306 58.4463 265.25 58.3033 265.189 58.182C265.432 58.1907 265.653 58.195 265.852 58.195C266.051 58.195 266.19 58.195 266.268 58.195C266.346 58.1863 266.394 58.169 266.411 58.143C266.437 58.117 266.45 58.0693 266.45 58V51.864ZM263.252 57.337C263.599 57.129 264.006 56.869 264.474 56.557C264.942 56.2363 265.423 55.9113 265.917 55.582L266.203 56.323C265.787 56.6437 265.362 56.96 264.929 57.272C264.504 57.584 264.101 57.8743 263.72 58.143L263.252 57.337ZM267.321 52.449C267.425 52.8823 267.564 53.3373 267.737 53.814C267.919 54.282 268.144 54.7457 268.413 55.205C268.69 55.6643 269.02 56.089 269.401 56.479C269.782 56.8603 270.22 57.1853 270.714 57.454C270.653 57.5147 270.584 57.5927 270.506 57.688C270.428 57.7747 270.35 57.87 270.272 57.974C270.203 58.078 270.142 58.1733 270.09 58.26C269.596 57.9567 269.163 57.597 268.79 57.181C268.417 56.7563 268.097 56.3057 267.828 55.829C267.568 55.3523 267.351 54.88 267.178 54.412C267.005 53.944 266.87 53.5107 266.775 53.112L267.321 52.449ZM259.404 50.304H263.109V51.136H259.404V50.304ZM258.715 52.527H263.473V53.385H258.715V52.527ZM259.001 54.23L259.677 54.074C259.816 54.464 259.933 54.8887 260.028 55.348C260.123 55.8073 260.184 56.2017 260.21 56.531L259.482 56.713C259.473 56.375 259.421 55.9763 259.326 55.517C259.239 55.0577 259.131 54.6287 259.001 54.23ZM258.585 57.74C258.992 57.662 259.456 57.5753 259.976 57.48C260.505 57.376 261.064 57.2677 261.653 57.155C262.242 57.0337 262.827 56.9167 263.408 56.804L263.486 57.623C262.654 57.805 261.826 57.987 261.003 58.169C260.18 58.351 259.443 58.507 258.793 58.637L258.585 57.74ZM262.615 53.957L263.382 54.152C263.269 54.5507 263.157 54.9667 263.044 55.4C262.931 55.8247 262.819 56.1887 262.706 56.492L262.069 56.297C262.138 56.089 262.208 55.8463 262.277 55.569C262.346 55.283 262.411 55.0013 262.472 54.724C262.533 54.438 262.58 54.1823 262.615 53.957ZM260.743 50.616H261.614V57.701L260.743 57.831V50.616ZM260.704 47.08H261.224V47.288H261.51V47.548C261.259 48.042 260.916 48.6097 260.483 49.251C260.05 49.8837 259.512 50.486 258.871 51.058C258.819 50.9887 258.758 50.915 258.689 50.837C258.62 50.759 258.546 50.6853 258.468 50.616C258.39 50.538 258.321 50.4773 258.26 50.434C258.659 50.1047 259.014 49.7493 259.326 49.368C259.638 48.978 259.907 48.588 260.132 48.198C260.366 47.7993 260.557 47.4267 260.704 47.08ZM260.86 47.08H261.588C261.848 47.314 262.117 47.574 262.394 47.86C262.671 48.1373 262.931 48.4147 263.174 48.692C263.425 48.9607 263.625 49.2077 263.772 49.433L263.122 50.161C262.975 49.9443 262.784 49.693 262.55 49.407C262.325 49.1123 262.082 48.822 261.822 48.536C261.562 48.2413 261.306 47.9857 261.055 47.769H260.86V47.08ZM273.964 50.85H281.036V51.747H273.964V50.85ZM271.728 53.242H283.259V54.165H271.728V53.242ZM275.147 53.879H276.2C276.131 54.5117 276.018 55.0967 275.862 55.634C275.715 56.1713 275.489 56.6567 275.186 57.09C274.891 57.5233 274.488 57.9047 273.977 58.234C273.466 58.5633 272.816 58.8407 272.027 59.066C271.992 58.9793 271.94 58.884 271.871 58.78C271.81 58.676 271.741 58.572 271.663 58.468C271.594 58.3727 271.52 58.2947 271.442 58.234C272.179 58.052 272.777 57.8223 273.236 57.545C273.695 57.2677 274.055 56.947 274.315 56.583C274.575 56.219 274.766 55.8117 274.887 55.361C275.008 54.9017 275.095 54.4077 275.147 53.879ZM278.436 53.801H279.424V57.467C279.424 57.6577 279.459 57.779 279.528 57.831C279.606 57.883 279.779 57.909 280.048 57.909C280.117 57.909 280.23 57.909 280.386 57.909C280.551 57.909 280.733 57.909 280.932 57.909C281.131 57.909 281.318 57.909 281.491 57.909C281.673 57.909 281.803 57.909 281.881 57.909C282.054 57.909 282.18 57.87 282.258 57.792C282.345 57.714 282.405 57.5537 282.44 57.311C282.475 57.0597 282.501 56.6827 282.518 56.18C282.587 56.2407 282.674 56.297 282.778 56.349C282.882 56.3923 282.99 56.4357 283.103 56.479C283.216 56.5137 283.315 56.544 283.402 56.57C283.367 57.168 283.302 57.6317 283.207 57.961C283.112 58.2817 282.969 58.5027 282.778 58.624C282.587 58.7453 282.314 58.806 281.959 58.806C281.898 58.806 281.773 58.806 281.582 58.806C281.391 58.806 281.183 58.806 280.958 58.806C280.733 58.806 280.525 58.806 280.334 58.806C280.143 58.806 280.018 58.806 279.957 58.806C279.55 58.806 279.238 58.767 279.021 58.689C278.804 58.6197 278.653 58.4853 278.566 58.286C278.479 58.0953 278.436 57.8267 278.436 57.48V53.801ZM276.954 47.08H277.981V49.147H276.954V47.08ZM272.04 48.471H282.973V51.227H281.933V49.407H273.028V51.227H272.04V48.471ZM290.006 51.513H291.033V57.779C291.033 58.1083 290.981 58.3553 290.877 58.52C290.782 58.6847 290.604 58.806 290.344 58.884C290.093 58.962 289.746 59.0053 289.304 59.014C288.862 59.0313 288.312 59.04 287.653 59.04C287.627 58.9013 287.571 58.7367 287.484 58.546C287.406 58.364 287.328 58.2037 287.25 58.065C287.614 58.0737 287.956 58.078 288.277 58.078C288.606 58.0867 288.892 58.091 289.135 58.091C289.378 58.091 289.547 58.0867 289.642 58.078C289.781 58.078 289.876 58.052 289.928 58C289.98 57.9567 290.006 57.8787 290.006 57.766V51.513ZM285.274 48.094H294.673V49.056H285.274V48.094ZM294.322 48.094H294.569L294.803 48.029L295.557 48.588C295.176 49.0473 294.729 49.5153 294.218 49.992C293.707 50.46 293.169 50.902 292.606 51.318C292.043 51.734 291.497 52.098 290.968 52.41C290.916 52.332 290.851 52.254 290.773 52.176C290.695 52.0893 290.613 52.007 290.526 51.929C290.448 51.8423 290.374 51.773 290.305 51.721C290.669 51.513 291.046 51.2747 291.436 51.006C291.826 50.7287 292.199 50.434 292.554 50.122C292.918 49.81 293.252 49.5023 293.555 49.199C293.858 48.8957 294.114 48.6097 294.322 48.341V48.094Z" fill="#6C757D"/>
<path d="M27.5039 13.2835C27.8113 13.1078 28.1887 13.1078 28.4961 13.2835L54.4806 28.1318C55.1524 28.5157 55.1524 29.4843 54.4806 29.8682L28.4961 44.7165C28.1887 44.8922 27.8113 44.8922 27.5039 44.7165L1.51942 29.8682C0.847609 29.4843 0.847611 28.5157 1.51943 28.1318L27.5039 13.2835Z" fill="#A8D5BA"/>
<rect width="17.875" height="3.53846" transform="matrix(0 -1 -1 0 158.625 23.6042)" fill="#5DABA8"/>
<rect width="11.0577" height="5.04167" transform="matrix(-1 0 0 1 169.683 18.5625)" fill="#5DABA8"/>
<path d="M163.271 7.5778L171.279 17.4167L173 15.8298V15.2145L165.277 5.72916L163.271 7.5778Z" fill="#5DABA8"/>
<rect width="22.1154" height="6.1875" transform="matrix(-1 0 0 1 151.327 17.4167)" fill="#5DABA8"/>
<path d="M151.327 23.6038H154.644V5.27084H151.327V23.6038Z" fill="#5DABA8"/>
<path d="M158.625 8.93717H165.26V5.72916H158.625V8.93717Z" fill="#5DABA8"/>
<path d="M128.106 0C127.495 0 127 0.494908 127 1.10547V23.6045H129.212V0H128.106Z" fill="#5DABA8"/>
<path d="M129.635 0C129.491 1.87984e-05 129.349 0.0147246 129.211 0.0371094V5.23242C129.349 5.25481 129.491 5.27049 129.635 5.27051H153.778C154.081 5.27051 154.372 5.21658 154.644 5.12207V5.27051H159.731C159.731 4.57854 159.6 3.89321 159.344 3.25391C159.088 2.61442 158.713 2.03339 158.24 1.54395C157.768 1.05466 157.208 0.666224 156.591 0.401367C155.974 0.136483 155.312 -3.0256e-08 154.644 0V0.147461C154.372 0.0530407 154.081 0 153.778 0H129.635Z" fill="#5DABA8"/>
<path d="M127 23.6042V27.0417H127.125C127.464 28.1049 128.46 28.8747 129.636 28.8747H170.364C171.82 28.8747 173 27.6953 173 26.2399C173 26.2012 172.996 26.1629 172.994 26.1247H173V23.6042H127Z" fill="#5DABA8"/>
<path d="M169.683 23.6037H173V15.3674H169.683V23.6037Z" fill="#5DABA8"/>
<path d="M162.716 24.0208C160.164 24.0211 158.125 26.1597 158.125 28.7601C158.125 31.3606 160.164 33.5001 162.716 33.5003C165.268 33.5003 167.308 31.3608 167.308 28.7601C167.308 26.1596 165.268 24.0208 162.716 24.0208Z" fill="#5DABA8" stroke="white"/>
<path d="M137.504 23.5625C134.952 23.5628 132.914 25.7014 132.914 28.3018C132.914 30.9023 134.952 33.0417 137.504 33.042C140.057 33.042 142.096 30.9024 142.096 28.3018C142.096 25.7012 140.057 23.5625 137.504 23.5625Z" fill="#5DABA8" stroke="white"/>
<rect width="22.1154" height="12.1458" transform="matrix(-1 0 0 1 151.327 5.27084)" fill="white"/>
<rect width="0.442308" height="18.3333" transform="matrix(-1 0 0 1 155.087 5.27084)" fill="white"/>
<rect width="0.458333" height="4.64423" transform="matrix(0 -1 -1 0 159.731 5.72916)" fill="white"/>
<rect width="9.625" height="5.75" transform="matrix(0 -1 -1 0 164.375 18.5625)" fill="white"/>
<rect width="5.30769" height="2.97917" transform="matrix(-1 0 0 1 169.683 15.5833)" fill="white"/>
<path d="M164.375 15.583H169.683V15.4473L164.375 8.9375V15.583Z" fill="white"/>
</svg>
